<svg width="52" height="53" viewBox="0 0 52 53" fill="none" xmlns="http://www.w3.org/2000/svg">
<rect x="0.5" y="1" width="51" height="51" rx="9.5" stroke="#737373"/>
<g clip-path="url(#clip0_123_380)">
<path d="M19.3332 46.4998C23.0132 46.4998 25.9998 43.5132 25.9998 39.8332V33.1665H19.3332C15.6532 33.1665 12.6665 36.1532 12.6665 39.8332C12.6665 43.5132 15.6532 46.4998 19.3332 46.4998Z" fill="#D4D4D4"/>
<path d="M12.6665 26.5002C12.6665 22.8202 15.6532 19.8335 19.3332 19.8335H25.9998V33.1668H19.3332C15.6532 33.1668 12.6665 30.1802 12.6665 26.5002Z" fill="#D4D4D4"/>
<path d="M12.6665 13.1667C12.6665 9.48667 15.6532 6.5 19.3332 6.5H25.9998V19.8333H19.3332C15.6532 19.8333 12.6665 16.8467 12.6665 13.1667Z" fill="#D4D4D4"/>
<path d="M25.9999 6.5H32.6665C36.3465 6.5 39.3332 9.48667 39.3332 13.1667C39.3332 16.8467 36.3465 19.8333 32.6665 19.8333H25.9999V6.5Z" fill="#D4D4D4"/>
<path d="M39.3332 26.5002C39.3332 30.1802 36.3465 33.1668 32.6665 33.1668C28.9865 33.1668 25.9999 30.1802 25.9999 26.5002C25.9999 22.8202 28.9865 19.8335 32.6665 19.8335C36.3465 19.8335 39.3332 22.8202 39.3332 26.5002Z" fill="#D4D4D4"/>
</g>
<defs>
<clipPath id="clip0_123_380">
<rect width="40" height="40" fill="white" transform="translate(6 6.5)"/>
</clipPath>
</defs>
</svg>
