<svg width="52" height="53" viewBox="0 0 52 53" fill="none" xmlns="http://www.w3.org/2000/svg">
<rect x="0.5" y="1" width="51" height="51" rx="9.5" stroke="#737373"/>
<path d="M25.9905 9.8335C22.6942 9.8335 19.4718 10.811 16.731 12.6423C13.9902 14.4737 11.854 17.0767 10.5925 20.1221C9.33107 23.1675 9.00102 26.5187 9.64411 29.7517C10.2872 32.9847 11.8745 35.9544 14.2054 38.2853C16.5363 40.6162 19.506 42.2035 22.739 42.8466C25.972 43.4897 29.3231 43.1596 32.3686 41.8982C35.414 40.6367 38.017 38.5005 39.8484 35.7597C41.6797 33.0188 42.6572 29.7965 42.6572 26.5002C42.6574 24.3114 42.2264 22.1441 41.3889 20.1219C40.5514 18.0997 39.3237 16.2623 37.776 14.7146C36.2284 13.167 34.391 11.9393 32.3688 11.1018C30.3466 10.2643 28.1793 9.83331 25.9905 9.8335ZM31.2897 35.0876C31.2273 35.2432 31.1324 35.3836 31.0113 35.4994C30.8902 35.6153 30.7458 35.704 30.5876 35.7594C30.4295 35.8149 30.2613 35.8359 30.0944 35.8211C29.9274 35.8063 29.7656 35.7559 29.6197 35.6734L25.0953 32.1578L22.1914 34.8368C22.124 34.8866 22.0452 34.9187 21.9622 34.93C21.8792 34.9413 21.7947 34.9316 21.7164 34.9017L22.2731 29.921L22.2909 29.9351L22.3023 29.8368C22.3023 29.8368 30.4439 22.4242 30.7756 22.1084C31.1114 21.7934 31.0006 21.7251 31.0006 21.7251C31.0197 21.3409 30.3981 21.7251 30.3981 21.7251L19.6105 28.6652L15.118 27.1352C15.118 27.1352 14.428 26.8877 14.363 26.3435C14.2947 25.8035 15.1405 25.5102 15.1405 25.5102L33.0022 18.4143C33.0022 18.4143 34.4705 17.7601 34.4705 18.8435L31.2897 35.0876Z" fill="#D4D4D4"/>
</svg>
