<svg width="52" height="53" viewBox="0 0 52 53" fill="none" xmlns="http://www.w3.org/2000/svg">
<rect x="0.5" y="1" width="51" height="51" rx="9.5" stroke="#737373"/>
<path d="M44.5684 14.9486C43.2016 15.5558 41.7332 15.9642 40.192 16.1486C41.766 15.2058 42.9728 13.7134 43.5412 11.9338C42.07 12.8066 40.4392 13.4406 38.702 13.7834C37.3124 12.3022 35.3328 11.3766 33.1416 11.3766C28.2984 11.3118 24.5748 16.0434 25.7208 20.7306C19.3892 20.4134 13.776 17.3798 10.0168 12.769C7.96521 16.1146 9.13001 20.899 12.3752 22.9414C11.1268 22.9014 9.95121 22.5586 8.92441 21.9886C8.87681 25.7106 11.5172 28.853 15.036 29.5542C13.9548 29.8558 12.7092 29.903 11.5952 29.6854C12.5652 32.7118 15.3788 34.9158 18.7124 34.977C15.6984 37.3854 11.4788 38.641 7.43201 38.1322C23.7048 48.147 41.694 35.0262 40.7652 18.8918C42.2544 17.8166 43.5472 16.4754 44.5684 14.9486Z" fill="#D4D4D4"/>
</svg>
